<svg id="Layer_1" data-name="Layer 1" xmlns="http://www.w3.org/2000/svg" viewBox="0 0 66.83 77.79"><path d="M273.11,210l-.19-1.73-.09-.79-2.35-1a86.23,86.23,0,0,0-19.35-4.75,83.6,83.6,0,0,0-13-.71,86.78,86.78,0,0,0-8.91.69,106.68,106.68,0,0,0-19.9,4.51l-2.69,1-.05.92h0l-.09,1.88a121.83,121.83,0,0,0,.44,13c.55,6.5,1.73,14.36,4.23,21a69,69,0,0,0,10,17.84c.61.78,1.23,1.54,1.84,2.26a70.28,70.28,0,0,0,7,7.24,84.67,84.67,0,0,0,7.66,6l2.25,1.54,2.17-1.56c.31-.26-.12.09,4.4-3.32-1.74-1.34-4-3.17-6.65-5.36-.93-.72-2.1-1.67-3.43-2.86a67.05,67.05,0,0,1-5.9-6,65,65,0,0,1-11.6-18.9A54.4,54.4,0,0,1,216,229c-.45-3-.72-5.94-.87-8.57-.17-2.81-.22-5.31-.22-7.08,1.62-.47,3.21-.93,5.89-1.52l1.37-.24c2.66-.44,8.26-1.36,8.44-1.4,0,0,5.18-.58,7.71-.64a73.59,73.59,0,0,1,10.93.56,86.08,86.08,0,0,1,8.53,1.5c3,.67,5.38,1.39,7,1.92.08,1.71.13,4.16,0,7a78,78,0,0,1-.8,8.64,55.59,55.59,0,0,1-2.93,11.49,62.39,62.39,0,0,1-11.83,19.06c-1.27-1.28-2.62-2.73-4-4.36a67.17,67.17,0,0,1-5.26-7.22,63.08,63.08,0,0,1-5.38-10.55A54.42,54.42,0,0,1,231.76,226c2.12-.24,4.33-.41,6.57-.46a73.07,73.07,0,0,1,10.22.48,56.68,56.68,0,0,1-2.67,10.71c-.08.21-.15.43-.23.64q-.93,2.43-2,4.66a29.69,29.69,0,0,0,2.15,3.83,27.8,27.8,0,0,0,3.16,4,60.58,60.58,0,0,0,3-5.92c.51-1.15,1-2.33,1.44-3.55a71.12,71.12,0,0,0,3.31-13c.48-3,.78-5.89,1-8.5-2.5-.51-5.27-1-8.25-1.3a84.51,84.51,0,0,0-11.25-.51c-2.47.07-4.9.25-7.23.5-3,.33-5.77.77-8.32,1.27.2,2.63.5,5.51,1,8.48a63.59,63.59,0,0,0,11.09,28.24,71.13,71.13,0,0,0,5.29,6.73c1.16,1.3,2.3,2.5,3.41,3.58a70,70,0,0,0,6.36,5.54,79.55,79.55,0,0,0,5.94-6c1.19-1.33,2.39-2.76,3.58-4.31a65.74,65.74,0,0,0,9.65-17.33,76.57,76.57,0,0,0,4.08-19.2A87.41,87.41,0,0,0,273.11,210Z" transform="translate(-206.49 -201.05)"/></svg>