<svg id="Layer_1" data-name="Layer 1" xmlns="http://www.w3.org/2000/svg" viewBox="0 0 727.32 211.27"><defs><style>.cls-1{fill:#231f20;}</style></defs><path class="cls-1" d="M189.41,28.29l-.52-4.68-.24-2.16-6.38-2.58c-1.2-.48-22.47-8.94-52.56-12.89A226.51,226.51,0,0,0,94.47,4,240.53,240.53,0,0,0,70.26,5.93a286.09,286.09,0,0,0-54,12.25L8.91,20.77l-.12,2.52h0l-.23,5.1A329.41,329.41,0,0,0,9.73,63.68c1.49,17.65,4.7,39,11.48,56.9A186.85,186.85,0,0,0,48.47,169c1.66,2.14,3.32,4.2,5,6.16a195.31,195.31,0,0,0,19.16,19.67C84,205,92.61,210.24,93.41,211l6.1,4.2,5.9-4.24c.85-.71-.32.23,12-9-4.73-3.63-10.92-8.6-18.06-14.55-2.53-1.94-5.72-4.53-9.33-7.75a183.1,183.1,0,0,1-16-16.21,177.34,177.34,0,0,1-31.52-51.34c-3.87-9.81-6.39-21.13-8-32.17C33.2,71.79,32.47,63.79,32,56.65c-.45-7.63-.58-14.42-.58-19.23,4.4-1.28,8.71-2.52,16-4.13l3.73-.63C58.4,31.45,73.61,29,74.1,28.84c0,0,14.07-1.57,21-1.74a201.13,201.13,0,0,1,29.66,1.53,229.47,229.47,0,0,1,23.17,4.07c8.06,1.83,14.62,3.77,19.1,5.22.21,4.64.36,11.29.06,19.13a212.38,212.38,0,0,1-2.18,23.47,152,152,0,0,1-8,31.2c-8.12,21.28-20.47,38.69-32.14,51.79-3.46-3.48-7.11-7.44-10.8-11.85a183.19,183.19,0,0,1-14.29-19.6,171.18,171.18,0,0,1-14.6-28.67c-3.83-9.71-6.34-20.88-8-31.81,5.78-.64,11.76-1.1,17.84-1.25a201.56,201.56,0,0,1,27.77,1.3,153.56,153.56,0,0,1-7.25,29.09c-.21.59-.41,1.18-.64,1.76-1.67,4.38-3.53,8.59-5.52,12.64a77,77,0,0,0,5.82,10.4,75.74,75.74,0,0,0,8.6,10.82,173.41,173.41,0,0,0,8.09-16.07c1.38-3.13,2.69-6.33,3.91-9.64a191.84,191.84,0,0,0,9-35.38c1.31-8.18,2.12-16,2.59-23.06-6.76-1.39-14.29-2.64-22.38-3.54a223.68,223.68,0,0,0-30.55-1.38c-6.73.17-13.32.66-19.65,1.35-8,.88-15.67,2.1-22.59,3.43.54,7.15,1.36,15,2.59,23,1.91,12.42,4.78,25.31,9.13,36.77a186,186,0,0,0,21,39.93,193.65,193.65,0,0,0,14.36,18.27c3.15,3.54,6.26,6.79,9.26,9.73a190.66,190.66,0,0,0,17.27,15,212.25,212.25,0,0,0,16.15-16.18c3.23-3.6,6.49-7.51,9.72-11.71a178,178,0,0,0,26.2-47.07c6.53-17.81,9.66-36.38,11.08-52.12A239.11,239.11,0,0,0,189.41,28.29Z" transform="translate(-8.47 -3.97)"/><path class="cls-1" d="M239.64,140.58H223.72c-5,0-7.05-2.23-7.05-7.21V84.44c0-5,2.07-7.22,7.05-7.22h15.92c5,0,7.13,2.24,7.13,7.22V98.62H234.58V88.09h-5.8v41.63h5.8V118.94h12.19v14.43C246.77,138.35,244.62,140.58,239.64,140.58Z" transform="translate(-8.47 -3.97)"/><path class="cls-1" d="M276.16,140.58H260.24c-5,0-7.05-2.23-7.05-7.21V84.44c0-5,2.07-7.22,7.05-7.22h15.92c5,0,7.13,2.24,7.13,7.22v48.93C283.29,138.35,281.13,140.58,276.16,140.58ZM271.1,88.09h-5.81v41.63h5.81Z" transform="translate(-8.47 -3.97)"/><path class="cls-1" d="M289.7,140.58V77.22h12.11v51.67h11.11v11.69Z" transform="translate(-8.47 -3.97)"/><path class="cls-1" d="M319,140.58V77.22h12.11v51.67h11.11v11.69Z" transform="translate(-8.47 -3.97)"/><path class="cls-1" d="M348.34,140.58V77.22H373V88.58H360.45v13.69H371v11.19H360.45v15.76h12.69v11.36Z" transform="translate(-8.47 -3.97)"/><path class="cls-1" d="M402.29,140.58H386.36c-5,0-7.05-2.23-7.05-7.21V84.44c0-5,2.08-7.22,7.05-7.22h15.93c5,0,7.13,2.24,7.13,7.22V98.62H397.23V88.09h-5.81v41.63h5.81V118.94h12.19v14.43C409.42,138.35,407.26,140.58,402.29,140.58Z" transform="translate(-8.47 -3.97)"/><path class="cls-1" d="M435.23,88.58v52H423.12v-52h-7.8V77.22H443V88.58Z" transform="translate(-8.47 -3.97)"/><path class="cls-1" d="M449,140.58V77.22h12.11v63.36Z" transform="translate(-8.47 -3.97)"/><path class="cls-1" d="M489.56,140.58H477.12L467,77.39v-.17h12.28L483,110c.08.5.25,7.88.25,7.88s.16-7.38.25-7.88l3.81-32.76H499.6v.17Z" transform="translate(-8.47 -3.97)"/><path class="cls-1" d="M505.58,140.58V77.22h24.63V88.58H517.69v13.69h10.53v11.19H517.69v15.76h12.69v11.36Z" transform="translate(-8.47 -3.97)"/><path class="cls-1" d="M576.82,140.58H561.39c-4.89,0-7-2.23-7-7.21V119.52h12.11V130h5.31V119.44l-15.43-14.27a6.67,6.67,0,0,1-2-5.31V84.44c0-5,2.16-7.22,7-7.22h15.43c5,0,7.13,2.16,7.13,7.13V98H571.76V87.84h-5.31V98.29l15.35,14.26a6.42,6.42,0,0,1,2.15,5.31v15.51C584,138.35,581.71,140.58,576.82,140.58Z" transform="translate(-8.47 -3.97)"/><path class="cls-1" d="M608.28,140.58v-27.2h-5.81v27.2H590.36V77.22h12.11v24.3h5.81V77.22h12.19v63.36Z" transform="translate(-8.47 -3.97)"/><path class="cls-1" d="M626.88,140.58V77.22H639v63.36Z" transform="translate(-8.47 -3.97)"/><path class="cls-1" d="M645.39,140.58V77.22H670V88.58H657.5v13.69H668v11.19H657.5v15.76h12.69v11.36Z" transform="translate(-8.47 -3.97)"/><path class="cls-1" d="M676.37,140.58V77.22h12.11v51.67h11.11v11.69Z" transform="translate(-8.47 -3.97)"/><path class="cls-1" d="M725.76,140.58H705.69V77.22h20.07c6.72,0,10,3.15,10,9.87V130.8C735.79,137.52,732.48,140.58,725.76,140.58ZM723.6,90.16c0-1.58-.83-2.07-2.32-2.07H717.8v41.63h3.48c1.49,0,2.32-.5,2.32-2.07Z" transform="translate(-8.47 -3.97)"/></svg>